# xmcd
#
# Track frame offsets: 
#        150
#        19215
#        36465
#        49547
#        74757
#        95315
#        115420
#        137807
#        166102
#        182434
#        207050
#
# Disc length: 3309 seconds
#
# Revision: 0
# Processed by: cddbd v1.5.2PL0 Copyright (c) Steve Scherf et al.
# Submitted via: ExactAudioCopy v0.99pb4
#
DISCID=960ceb0b
DTITLE=Steve Johnson - Blues in the Morning
DYEAR=1900
DGENRE=Blues
TTITLE0=Happy Song
TTITLE1=Leaving New York
TTITLE2=Hide and Seek
TTITLE3=Blues in the Morning
TTITLE4=Walk With Me
TTITLE5=Gone for Good
TTITLE6=BBQ
TTITLE7=Shame and a Sin
TTITLE8=Seven Nights to Rock
TTITLE9=I Got THE Blues
TTITLE10=Untitled
EXTD=
EXTT0=
EXTT1=
EXTT2=
EXTT3=
EXTT4=
EXTT5=
EXTT6=
EXTT7=
EXTT8=
EXTT9=
EXTT10=
PLAYORDER=
